{"title":"Ghost Hunters - S06E22 - Empire State Haunt.[tNe.XViD].avi","uid":5949728,"size":367633514,"categoryP":"video","categoryS":"tv_shows","magnet":"?xt=urn:btih:9c498eba17705c1e0b6f805ee59a891296e752f1&amp;dn=Ghost+Hunters+-+S06E22+-+Empire+State+Haunt.%5BtNe.XViD%5D.avi&amp;tr=udp%3A%2F%2Ftracker.openbittorrent.com%3A80&amp;tr=udp%3A%2F%2Fopen.demonii.com%3A1337&amp;tr=udp%3A%2F%2Ftracker.coppersurfer.tk%3A6969&amp;tr=udp%3A%2F%2Fexodus.desync.com%3A6969","seeders":1,"leechers":1,"uploader":"trialNerror","files":1,"time":1289483348,"description":"Format                           : AVI\nFormat/Info                      : Audio Video Interleave\nFile size                        : 351 MiB\nDuration                         : 43mn 36s\nOverall bit rate                 : 1 124 Kbps\nWriting library                  : VirtualDub build 32839/release\n\nVideo\nID                               : 0\nFormat                           : MPEG-4 Visual\nFormat profile                   : Advanced Simple@L5\nFormat settings, BVOP            : Yes\nFormat settings, QPel            : No\nFormat settings, GMC             : No warppoints\nFormat settings, Matrix          : Default (H.263)\nCodec ID                         : XVID\nCodec ID/Hint                    : XviD\nDuration                         : 43mn 36s\nBit rate                         : 997 Kbps\nWidth                            : 624 pixels\nHeight                           : 352 pixels\nDisplay aspect ratio             : 16:9\nFrame rate                       : 29.970 fps\nStream size                      : 311 MiB (89%)\nWriting library                  : XviD 1.2.1 (UTC 2008-12-04)\n\nAudio\nID                               : 1\nFormat                           : MPEG Audio\nFormat version                   : Version 1\nFormat profile                   : Layer 3\nMode                             : Joint stereo\nCodec ID/Hint                    : MP3\nBit rate mode                    : Variable\nBit rate                         : 113 Kbps\nChannel(s)                       : 2 channels\nSampling rate                    : 48.0 KHz\nStream size                      : 35.3 MiB (10%)\n\nWriting library                  : LAME3.98r","torrent":{"xt":"urn:btih:9c498eba17705c1e0b6f805ee59a891296e752f1","amp;dn":"Ghost+Hunters+-+S06E22+-+Empire+State+Haunt.%5BtNe.XViD%5D.avi","amp;tr":["udp%3A%2F%2Ftracker.openbittorrent.com%3A80","udp%3A%2F%2Fopen.demonii.com%3A1337","udp%3A%2F%2Ftracker.coppersurfer.tk%3A6969","udp%3A%2F%2Fexodus.desync.com%3A6969"],"infoHash":"9c498eba17705c1e0b6f805ee59a891296e752f1","infoHashBuffer":{"type":"Buffer","data":[156,73,142,186,23,112,92,30,11,111,128,94,229,154,137,18,150,231,82,241]},"announce":[],"urlList":[]}}